<mxfile host="app.diagrams.net" agent="Mozilla/5.0 (Windows NT 10.0; Win64; x64; rv:133.0) Gecko/20100101 Firefox/133.0" version="25.0.3">
  <diagram id="R2lEEEUBdFMjLlhIrx00" name="Page-1">
    <mxGraphModel dx="809" dy="488" grid="1" gridSize="10" guides="1" tooltips="1" connect="1" arrows="1" fold="1" page="1" pageScale="1" pageWidth="850" pageHeight="1100" math="0" shadow="0" extFonts="Permanent Marker^https://fonts.googleapis.com/css?family=Permanent+Marker">
      <root>
        <mxCell id="0" />
        <mxCell id="1" parent="0" />
        <mxCell id="9FE5VQ18CB0oaiTqlROv-1" value="Veicolo" style="rounded=0;whiteSpace=wrap;html=1;fillColor=#fa6800;strokeColor=#C73500;fontColor=#FFFFFF;" parent="1" vertex="1">
          <mxGeometry x="305" y="230" width="120" height="60" as="geometry" />
        </mxCell>
        <mxCell id="9FE5VQ18CB0oaiTqlROv-11" value="Automobili" style="rounded=0;whiteSpace=wrap;html=1;fillColor=#e51400;strokeColor=#B20000;fontColor=#ffffff;" parent="1" vertex="1">
          <mxGeometry x="190" y="60" width="80" height="40" as="geometry" />
        </mxCell>
        <mxCell id="9FE5VQ18CB0oaiTqlROv-12" value="Ciclomotori" style="rounded=0;whiteSpace=wrap;html=1;fillColor=#e51400;strokeColor=#B20000;fontColor=#ffffff;" parent="1" vertex="1">
          <mxGeometry x="280" y="60" width="80" height="40" as="geometry" />
        </mxCell>
        <mxCell id="9FE5VQ18CB0oaiTqlROv-13" value="Camion" style="rounded=0;whiteSpace=wrap;html=1;fillColor=#e51400;strokeColor=#B20000;fontColor=#ffffff;" parent="1" vertex="1">
          <mxGeometry x="370" y="60" width="80" height="40" as="geometry" />
        </mxCell>
        <mxCell id="9FE5VQ18CB0oaiTqlROv-14" value="Rimorchio" style="rounded=0;whiteSpace=wrap;html=1;fillColor=#E51400;strokeColor=#B20000;fontColor=#ffffff;" parent="1" vertex="1">
          <mxGeometry x="460" y="60" width="80" height="40" as="geometry" />
        </mxCell>
        <mxCell id="9FE5VQ18CB0oaiTqlROv-120" value="&lt;span&gt;targa&lt;/span&gt;" style="text;html=1;align=center;verticalAlign=middle;resizable=0;points=[];autosize=1;fontSize=10;fontColor=#00CC00;labelBorderColor=none;" parent="1" vertex="1">
          <mxGeometry x="235" y="260" width="50" height="30" as="geometry" />
        </mxCell>
        <mxCell id="9FE5VQ18CB0oaiTqlROv-124" value="&lt;span&gt;num_posti&lt;/span&gt;" style="text;html=1;align=center;verticalAlign=middle;resizable=0;points=[];autosize=1;fontSize=10;fontColor=#00CC00;labelBorderColor=none;" parent="1" vertex="1">
          <mxGeometry x="285" y="324.64" width="70" height="30" as="geometry" />
        </mxCell>
        <mxCell id="9FE5VQ18CB0oaiTqlROv-127" value="&lt;span&gt;velocità&lt;/span&gt;" style="text;html=1;align=center;verticalAlign=middle;resizable=0;points=[];autosize=1;fontSize=10;fontColor=#00CC00;labelBorderColor=none;" parent="1" vertex="1">
          <mxGeometry x="280" y="310" width="60" height="30" as="geometry" />
        </mxCell>
        <mxCell id="9FE5VQ18CB0oaiTqlROv-131" value="&lt;span&gt;cavalli&lt;/span&gt;" style="text;html=1;align=center;verticalAlign=middle;resizable=0;points=[];autosize=1;fontSize=10;fontColor=#00CC00;labelBorderColor=none;" parent="1" vertex="1">
          <mxGeometry x="270" y="290" width="50" height="30" as="geometry" />
        </mxCell>
        <mxCell id="9FE5VQ18CB0oaiTqlROv-133" value="&lt;span&gt;cilindrata&lt;/span&gt;" style="text;html=1;align=center;verticalAlign=middle;resizable=0;points=[];autosize=1;fontSize=10;fontColor=#00CC00;labelBorderColor=none;" parent="1" vertex="1">
          <mxGeometry x="335" y="364.64" width="60" height="30" as="geometry" />
        </mxCell>
        <mxCell id="9FE5VQ18CB0oaiTqlROv-136" value="&lt;span&gt;data_imm&lt;/span&gt;" style="text;html=1;align=center;verticalAlign=middle;resizable=0;points=[];autosize=1;strokeColor=none;fillColor=none;fontSize=10;fontColor=#00CC00;" parent="1" vertex="1">
          <mxGeometry x="310" y="344.64" width="70" height="30" as="geometry" />
        </mxCell>
        <mxCell id="EgCNqoRSHUsFwrvyhHS5-4" value="&lt;div&gt;LEGEND&lt;/div&gt;&lt;div&gt;&lt;font color=&quot;#ff8000&quot;&gt;entità&lt;/font&gt;&lt;/div&gt;&lt;div&gt;&lt;font color=&quot;#3399ff&quot;&gt;relazioni&lt;/font&gt;&lt;/div&gt;&lt;div&gt;&lt;font color=&quot;#00cc00&quot;&gt;attributi&lt;/font&gt;&lt;/div&gt;&lt;div&gt;&lt;font color=&quot;#ff0080&quot;&gt;attributi relazione&lt;/font&gt;&lt;br&gt;&lt;/div&gt;&lt;div&gt;&lt;font color=&quot;#e51400&quot;&gt;entità derivate&lt;/font&gt;&lt;br&gt;&lt;/div&gt;" style="text;html=1;whiteSpace=wrap;overflow=hidden;rounded=0;" parent="1" vertex="1">
          <mxGeometry x="670" width="180" height="120" as="geometry" />
        </mxCell>
        <mxCell id="_Q3ZbAap9l-qBRIlL8T7-3" value="" style="rhombus;whiteSpace=wrap;html=1;" vertex="1" parent="1">
          <mxGeometry x="215" y="130" width="30" height="30" as="geometry" />
        </mxCell>
        <mxCell id="_Q3ZbAap9l-qBRIlL8T7-4" value="" style="rhombus;whiteSpace=wrap;html=1;" vertex="1" parent="1">
          <mxGeometry x="305" y="130" width="30" height="30" as="geometry" />
        </mxCell>
        <mxCell id="_Q3ZbAap9l-qBRIlL8T7-5" value="" style="rhombus;whiteSpace=wrap;html=1;" vertex="1" parent="1">
          <mxGeometry x="395" y="130" width="30" height="30" as="geometry" />
        </mxCell>
        <mxCell id="_Q3ZbAap9l-qBRIlL8T7-7" value="" style="rhombus;whiteSpace=wrap;html=1;" vertex="1" parent="1">
          <mxGeometry x="485" y="130" width="30" height="30" as="geometry" />
        </mxCell>
        <mxCell id="_Q3ZbAap9l-qBRIlL8T7-8" value="" style="endArrow=none;html=1;rounded=0;entryX=0.5;entryY=1;entryDx=0;entryDy=0;exitX=0.5;exitY=0;exitDx=0;exitDy=0;" edge="1" parent="1" source="_Q3ZbAap9l-qBRIlL8T7-3" target="9FE5VQ18CB0oaiTqlROv-11">
          <mxGeometry width="50" height="50" relative="1" as="geometry">
            <mxPoint x="120" y="160" as="sourcePoint" />
            <mxPoint x="170" y="110" as="targetPoint" />
          </mxGeometry>
        </mxCell>
        <mxCell id="_Q3ZbAap9l-qBRIlL8T7-9" value="" style="endArrow=none;html=1;rounded=0;entryX=0.5;entryY=1;entryDx=0;entryDy=0;exitX=0.5;exitY=0;exitDx=0;exitDy=0;" edge="1" parent="1" source="_Q3ZbAap9l-qBRIlL8T7-4" target="9FE5VQ18CB0oaiTqlROv-12">
          <mxGeometry width="50" height="50" relative="1" as="geometry">
            <mxPoint x="250" y="160" as="sourcePoint" />
            <mxPoint x="300" y="110" as="targetPoint" />
          </mxGeometry>
        </mxCell>
        <mxCell id="_Q3ZbAap9l-qBRIlL8T7-10" value="" style="endArrow=none;html=1;rounded=0;entryX=0.5;entryY=1;entryDx=0;entryDy=0;exitX=0.5;exitY=0;exitDx=0;exitDy=0;" edge="1" parent="1" source="_Q3ZbAap9l-qBRIlL8T7-5" target="9FE5VQ18CB0oaiTqlROv-13">
          <mxGeometry width="50" height="50" relative="1" as="geometry">
            <mxPoint x="370" y="160" as="sourcePoint" />
            <mxPoint x="420" y="110" as="targetPoint" />
          </mxGeometry>
        </mxCell>
        <mxCell id="_Q3ZbAap9l-qBRIlL8T7-11" value="" style="endArrow=none;html=1;rounded=0;entryX=0.5;entryY=1;entryDx=0;entryDy=0;exitX=0.5;exitY=0;exitDx=0;exitDy=0;" edge="1" parent="1" source="_Q3ZbAap9l-qBRIlL8T7-7" target="9FE5VQ18CB0oaiTqlROv-14">
          <mxGeometry width="50" height="50" relative="1" as="geometry">
            <mxPoint x="470" y="160" as="sourcePoint" />
            <mxPoint x="520" y="110" as="targetPoint" />
          </mxGeometry>
        </mxCell>
        <mxCell id="_Q3ZbAap9l-qBRIlL8T7-12" value="" style="endArrow=none;html=1;rounded=0;edgeStyle=orthogonalEdgeStyle;entryX=0.5;entryY=1;entryDx=0;entryDy=0;exitX=0;exitY=0;exitDx=0;exitDy=0;" edge="1" parent="1" source="9FE5VQ18CB0oaiTqlROv-1" target="_Q3ZbAap9l-qBRIlL8T7-3">
          <mxGeometry width="50" height="50" relative="1" as="geometry">
            <mxPoint x="180" y="230" as="sourcePoint" />
            <mxPoint x="230" y="180" as="targetPoint" />
          </mxGeometry>
        </mxCell>
        <mxCell id="_Q3ZbAap9l-qBRIlL8T7-13" value="" style="endArrow=none;html=1;rounded=0;edgeStyle=orthogonalEdgeStyle;entryX=0.5;entryY=1;entryDx=0;entryDy=0;exitX=0.25;exitY=0;exitDx=0;exitDy=0;" edge="1" parent="1" source="9FE5VQ18CB0oaiTqlROv-1" target="_Q3ZbAap9l-qBRIlL8T7-4">
          <mxGeometry width="50" height="50" relative="1" as="geometry">
            <mxPoint x="280" y="220" as="sourcePoint" />
            <mxPoint x="330" y="170" as="targetPoint" />
            <Array as="points">
              <mxPoint x="335" y="190" />
              <mxPoint x="320" y="190" />
            </Array>
          </mxGeometry>
        </mxCell>
        <mxCell id="_Q3ZbAap9l-qBRIlL8T7-14" value="" style="endArrow=none;html=1;rounded=0;edgeStyle=orthogonalEdgeStyle;entryX=0.5;entryY=1;entryDx=0;entryDy=0;exitX=0.75;exitY=0;exitDx=0;exitDy=0;" edge="1" parent="1" source="9FE5VQ18CB0oaiTqlROv-1" target="_Q3ZbAap9l-qBRIlL8T7-5">
          <mxGeometry width="50" height="50" relative="1" as="geometry">
            <mxPoint x="400" y="220" as="sourcePoint" />
            <mxPoint x="450" y="170" as="targetPoint" />
          </mxGeometry>
        </mxCell>
        <mxCell id="_Q3ZbAap9l-qBRIlL8T7-15" value="" style="endArrow=none;html=1;rounded=0;edgeStyle=orthogonalEdgeStyle;entryX=0.5;entryY=1;entryDx=0;entryDy=0;exitX=1;exitY=0;exitDx=0;exitDy=0;" edge="1" parent="1" source="9FE5VQ18CB0oaiTqlROv-1" target="_Q3ZbAap9l-qBRIlL8T7-7">
          <mxGeometry width="50" height="50" relative="1" as="geometry">
            <mxPoint x="480" y="220" as="sourcePoint" />
            <mxPoint x="530" y="170" as="targetPoint" />
          </mxGeometry>
        </mxCell>
        <mxCell id="_Q3ZbAap9l-qBRIlL8T7-16" value="bauletto" style="text;html=1;align=center;verticalAlign=middle;resizable=0;points=[];autosize=1;fontSize=10;fontColor=#00CC00;labelBorderColor=none;" vertex="1" parent="1">
          <mxGeometry x="275" y="20" width="60" height="30" as="geometry" />
        </mxCell>
        <mxCell id="_Q3ZbAap9l-qBRIlL8T7-17" value="" style="endArrow=none;html=1;rounded=0;" edge="1" parent="1">
          <mxGeometry width="50" height="50" relative="1" as="geometry">
            <mxPoint x="230" y="124.91999999999999" as="sourcePoint" />
            <mxPoint x="250" y="124.91999999999999" as="targetPoint" />
            <Array as="points">
              <mxPoint x="250" y="124.91999999999999" />
            </Array>
          </mxGeometry>
        </mxCell>
        <mxCell id="_Q3ZbAap9l-qBRIlL8T7-18" value="" style="ellipse;whiteSpace=wrap;html=1;aspect=fixed;fillColor=#000000;" vertex="1" parent="1">
          <mxGeometry x="250" y="120" width="10" height="10" as="geometry" />
        </mxCell>
        <mxCell id="_Q3ZbAap9l-qBRIlL8T7-19" value="&lt;font style=&quot;font-size: 6px;&quot;&gt;(1,1)&lt;br&gt;&lt;/font&gt;" style="text;html=1;align=center;verticalAlign=middle;whiteSpace=wrap;rounded=0;" vertex="1" parent="1">
          <mxGeometry x="235" y="100" width="10" height="10" as="geometry" />
        </mxCell>
        <mxCell id="_Q3ZbAap9l-qBRIlL8T7-21" value="&lt;font style=&quot;font-size: 6px;&quot;&gt;(0,1)&lt;br&gt;&lt;/font&gt;" style="text;html=1;align=center;verticalAlign=middle;whiteSpace=wrap;rounded=0;" vertex="1" parent="1">
          <mxGeometry x="310" y="210" width="10" height="10" as="geometry" />
        </mxCell>
        <mxCell id="_Q3ZbAap9l-qBRIlL8T7-22" value="&lt;font style=&quot;font-size: 6px;&quot;&gt;(0,1)&lt;br&gt;&lt;/font&gt;" style="text;html=1;align=center;verticalAlign=middle;whiteSpace=wrap;rounded=0;" vertex="1" parent="1">
          <mxGeometry x="345" y="210" width="10" height="10" as="geometry" />
        </mxCell>
        <mxCell id="_Q3ZbAap9l-qBRIlL8T7-23" value="&lt;font style=&quot;font-size: 6px;&quot;&gt;(0,1)&lt;br&gt;&lt;/font&gt;" style="text;html=1;align=center;verticalAlign=middle;whiteSpace=wrap;rounded=0;" vertex="1" parent="1">
          <mxGeometry x="400" y="210" width="10" height="10" as="geometry" />
        </mxCell>
        <mxCell id="_Q3ZbAap9l-qBRIlL8T7-24" value="&lt;font style=&quot;font-size: 6px;&quot;&gt;(0,1)&lt;br&gt;&lt;/font&gt;" style="text;html=1;align=center;verticalAlign=middle;whiteSpace=wrap;rounded=0;" vertex="1" parent="1">
          <mxGeometry x="430" y="210" width="10" height="10" as="geometry" />
        </mxCell>
        <mxCell id="_Q3ZbAap9l-qBRIlL8T7-25" value="" style="endArrow=none;html=1;rounded=0;" edge="1" parent="1">
          <mxGeometry width="50" height="50" relative="1" as="geometry">
            <mxPoint x="320" y="124.91999999999999" as="sourcePoint" />
            <mxPoint x="340" y="124.91999999999999" as="targetPoint" />
            <Array as="points">
              <mxPoint x="340" y="124.91999999999999" />
            </Array>
          </mxGeometry>
        </mxCell>
        <mxCell id="_Q3ZbAap9l-qBRIlL8T7-26" value="" style="ellipse;whiteSpace=wrap;html=1;aspect=fixed;fillColor=#000000;" vertex="1" parent="1">
          <mxGeometry x="340" y="120" width="10" height="10" as="geometry" />
        </mxCell>
        <mxCell id="_Q3ZbAap9l-qBRIlL8T7-27" value="" style="endArrow=none;html=1;rounded=0;" edge="1" parent="1">
          <mxGeometry width="50" height="50" relative="1" as="geometry">
            <mxPoint x="410" y="124.91999999999999" as="sourcePoint" />
            <mxPoint x="430" y="124.91999999999999" as="targetPoint" />
            <Array as="points">
              <mxPoint x="430" y="124.91999999999999" />
            </Array>
          </mxGeometry>
        </mxCell>
        <mxCell id="_Q3ZbAap9l-qBRIlL8T7-28" value="" style="ellipse;whiteSpace=wrap;html=1;aspect=fixed;fillColor=#000000;" vertex="1" parent="1">
          <mxGeometry x="430" y="120" width="10" height="10" as="geometry" />
        </mxCell>
        <mxCell id="_Q3ZbAap9l-qBRIlL8T7-29" value="" style="endArrow=none;html=1;rounded=0;" edge="1" parent="1">
          <mxGeometry width="50" height="50" relative="1" as="geometry">
            <mxPoint x="500" y="124.91999999999999" as="sourcePoint" />
            <mxPoint x="520" y="124.91999999999999" as="targetPoint" />
            <Array as="points">
              <mxPoint x="520" y="124.91999999999999" />
            </Array>
          </mxGeometry>
        </mxCell>
        <mxCell id="_Q3ZbAap9l-qBRIlL8T7-30" value="" style="ellipse;whiteSpace=wrap;html=1;aspect=fixed;fillColor=#000000;" vertex="1" parent="1">
          <mxGeometry x="520" y="120" width="10" height="10" as="geometry" />
        </mxCell>
        <mxCell id="_Q3ZbAap9l-qBRIlL8T7-31" value="&lt;font style=&quot;font-size: 6px;&quot;&gt;(1,1)&lt;br&gt;&lt;/font&gt;" style="text;html=1;align=center;verticalAlign=middle;whiteSpace=wrap;rounded=0;" vertex="1" parent="1">
          <mxGeometry x="325" y="100" width="10" height="10" as="geometry" />
        </mxCell>
        <mxCell id="_Q3ZbAap9l-qBRIlL8T7-34" value="&lt;font style=&quot;font-size: 6px;&quot;&gt;(1,1)&lt;br&gt;&lt;/font&gt;" style="text;html=1;align=center;verticalAlign=middle;whiteSpace=wrap;rounded=0;" vertex="1" parent="1">
          <mxGeometry x="415" y="100" width="10" height="10" as="geometry" />
        </mxCell>
        <mxCell id="_Q3ZbAap9l-qBRIlL8T7-35" value="&lt;font style=&quot;font-size: 6px;&quot;&gt;(1,1)&lt;br&gt;&lt;/font&gt;" style="text;html=1;align=center;verticalAlign=middle;whiteSpace=wrap;rounded=0;" vertex="1" parent="1">
          <mxGeometry x="505" y="100" width="10" height="10" as="geometry" />
        </mxCell>
        <mxCell id="_Q3ZbAap9l-qBRIlL8T7-37" value="" style="ellipse;whiteSpace=wrap;html=1;aspect=fixed;fillColor=#FFFFFF;" vertex="1" parent="1">
          <mxGeometry x="200" y="40" width="10" height="10" as="geometry" />
        </mxCell>
        <mxCell id="_Q3ZbAap9l-qBRIlL8T7-38" value="" style="endArrow=none;html=1;rounded=0;entryX=0.5;entryY=1;entryDx=0;entryDy=0;exitX=0.188;exitY=-0.003;exitDx=0;exitDy=0;exitPerimeter=0;" edge="1" parent="1" source="9FE5VQ18CB0oaiTqlROv-11" target="_Q3ZbAap9l-qBRIlL8T7-37">
          <mxGeometry width="50" height="50" relative="1" as="geometry">
            <mxPoint x="140" y="90" as="sourcePoint" />
            <mxPoint x="190" y="40" as="targetPoint" />
          </mxGeometry>
        </mxCell>
        <mxCell id="_Q3ZbAap9l-qBRIlL8T7-41" value="" style="ellipse;whiteSpace=wrap;html=1;aspect=fixed;fillColor=#FFFFFF;" vertex="1" parent="1">
          <mxGeometry x="280" y="40" width="10" height="10" as="geometry" />
        </mxCell>
        <mxCell id="_Q3ZbAap9l-qBRIlL8T7-42" value="" style="endArrow=none;html=1;rounded=0;entryX=0.5;entryY=1;entryDx=0;entryDy=0;exitX=0.188;exitY=-0.003;exitDx=0;exitDy=0;exitPerimeter=0;" edge="1" parent="1" target="_Q3ZbAap9l-qBRIlL8T7-41">
          <mxGeometry width="50" height="50" relative="1" as="geometry">
            <mxPoint x="285" y="60" as="sourcePoint" />
            <mxPoint x="270" y="40" as="targetPoint" />
          </mxGeometry>
        </mxCell>
        <mxCell id="_Q3ZbAap9l-qBRIlL8T7-43" value="" style="ellipse;whiteSpace=wrap;html=1;aspect=fixed;fillColor=#FFFFFF;" vertex="1" parent="1">
          <mxGeometry x="370" y="40" width="10" height="10" as="geometry" />
        </mxCell>
        <mxCell id="_Q3ZbAap9l-qBRIlL8T7-44" value="" style="endArrow=none;html=1;rounded=0;entryX=0.5;entryY=1;entryDx=0;entryDy=0;exitX=0.188;exitY=-0.003;exitDx=0;exitDy=0;exitPerimeter=0;" edge="1" parent="1" target="_Q3ZbAap9l-qBRIlL8T7-43">
          <mxGeometry width="50" height="50" relative="1" as="geometry">
            <mxPoint x="375" y="60" as="sourcePoint" />
            <mxPoint x="360" y="40" as="targetPoint" />
          </mxGeometry>
        </mxCell>
        <mxCell id="_Q3ZbAap9l-qBRIlL8T7-45" value="" style="ellipse;whiteSpace=wrap;html=1;aspect=fixed;fillColor=#FFFFFF;" vertex="1" parent="1">
          <mxGeometry x="460" y="40" width="10" height="10" as="geometry" />
        </mxCell>
        <mxCell id="_Q3ZbAap9l-qBRIlL8T7-46" value="" style="endArrow=none;html=1;rounded=0;entryX=0.5;entryY=1;entryDx=0;entryDy=0;exitX=0.188;exitY=-0.003;exitDx=0;exitDy=0;exitPerimeter=0;" edge="1" parent="1" target="_Q3ZbAap9l-qBRIlL8T7-45">
          <mxGeometry width="50" height="50" relative="1" as="geometry">
            <mxPoint x="465" y="60" as="sourcePoint" />
            <mxPoint x="450" y="40" as="targetPoint" />
          </mxGeometry>
        </mxCell>
        <mxCell id="_Q3ZbAap9l-qBRIlL8T7-47" value="" style="ellipse;whiteSpace=wrap;html=1;aspect=fixed;fillColor=#FFFFFF;" vertex="1" parent="1">
          <mxGeometry x="315" y="300" width="10" height="10" as="geometry" />
        </mxCell>
        <mxCell id="_Q3ZbAap9l-qBRIlL8T7-49" value="" style="endArrow=none;html=1;rounded=0;entryX=0.125;entryY=0.996;entryDx=0;entryDy=0;entryPerimeter=0;exitX=0.5;exitY=0;exitDx=0;exitDy=0;" edge="1" parent="1" source="_Q3ZbAap9l-qBRIlL8T7-47" target="9FE5VQ18CB0oaiTqlROv-1">
          <mxGeometry width="50" height="50" relative="1" as="geometry">
            <mxPoint x="260" y="350" as="sourcePoint" />
            <mxPoint x="310" y="300" as="targetPoint" />
          </mxGeometry>
        </mxCell>
        <mxCell id="_Q3ZbAap9l-qBRIlL8T7-50" value="" style="ellipse;whiteSpace=wrap;html=1;aspect=fixed;fillColor=#FFFFFF;" vertex="1" parent="1">
          <mxGeometry x="330" y="320" width="10" height="10" as="geometry" />
        </mxCell>
        <mxCell id="_Q3ZbAap9l-qBRIlL8T7-51" value="" style="endArrow=none;html=1;rounded=0;entryX=0.25;entryY=1;entryDx=0;entryDy=0;exitX=0.5;exitY=0;exitDx=0;exitDy=0;" edge="1" parent="1" source="_Q3ZbAap9l-qBRIlL8T7-50" target="9FE5VQ18CB0oaiTqlROv-1">
          <mxGeometry width="50" height="50" relative="1" as="geometry">
            <mxPoint x="275" y="355" as="sourcePoint" />
            <mxPoint x="335" y="295" as="targetPoint" />
          </mxGeometry>
        </mxCell>
        <mxCell id="_Q3ZbAap9l-qBRIlL8T7-55" value="" style="endArrow=none;html=1;rounded=0;entryX=0.334;entryY=1.006;entryDx=0;entryDy=0;exitX=0.5;exitY=0;exitDx=0;exitDy=0;entryPerimeter=0;" edge="1" parent="1" source="_Q3ZbAap9l-qBRIlL8T7-61">
          <mxGeometry width="50" height="50" relative="1" as="geometry">
            <mxPoint x="355" y="314.64" as="sourcePoint" />
            <mxPoint x="355.08000000000004" y="289.9999999999999" as="targetPoint" />
          </mxGeometry>
        </mxCell>
        <mxCell id="_Q3ZbAap9l-qBRIlL8T7-61" value="" style="ellipse;whiteSpace=wrap;html=1;aspect=fixed;fillColor=#FFFFFF;" vertex="1" parent="1">
          <mxGeometry x="350" y="334.64" width="10" height="10" as="geometry" />
        </mxCell>
        <mxCell id="_Q3ZbAap9l-qBRIlL8T7-62" value="" style="endArrow=none;html=1;rounded=0;entryX=0.584;entryY=1.005;entryDx=0;entryDy=0;exitX=0.5;exitY=0;exitDx=0;exitDy=0;entryPerimeter=0;" edge="1" parent="1" source="_Q3ZbAap9l-qBRIlL8T7-63" target="9FE5VQ18CB0oaiTqlROv-1">
          <mxGeometry width="50" height="50" relative="1" as="geometry">
            <mxPoint x="375" y="324.64" as="sourcePoint" />
            <mxPoint x="375.08000000000004" y="299.9999999999999" as="targetPoint" />
          </mxGeometry>
        </mxCell>
        <mxCell id="_Q3ZbAap9l-qBRIlL8T7-63" value="" style="ellipse;whiteSpace=wrap;html=1;aspect=fixed;fillColor=#FFFFFF;" vertex="1" parent="1">
          <mxGeometry x="370" y="344.64" width="10" height="10" as="geometry" />
        </mxCell>
        <mxCell id="_Q3ZbAap9l-qBRIlL8T7-65" value="" style="ellipse;whiteSpace=wrap;html=1;aspect=fixed;fillColor=#000000;" vertex="1" parent="1">
          <mxGeometry x="275" y="270" width="10" height="10" as="geometry" />
        </mxCell>
        <mxCell id="_Q3ZbAap9l-qBRIlL8T7-66" value="" style="endArrow=none;html=1;rounded=0;exitX=1;exitY=0.5;exitDx=0;exitDy=0;entryX=0;entryY=0.75;entryDx=0;entryDy=0;" edge="1" parent="1" source="_Q3ZbAap9l-qBRIlL8T7-65" target="9FE5VQ18CB0oaiTqlROv-1">
          <mxGeometry width="50" height="50" relative="1" as="geometry">
            <mxPoint x="250" y="320" as="sourcePoint" />
            <mxPoint x="300" y="270" as="targetPoint" />
          </mxGeometry>
        </mxCell>
        <mxCell id="_Q3ZbAap9l-qBRIlL8T7-67" value="" style="endArrow=none;html=1;rounded=0;entryX=0.75;entryY=1;entryDx=0;entryDy=0;exitX=1.004;exitY=0.36;exitDx=0;exitDy=0;exitPerimeter=0;" edge="1" parent="1" source="9FE5VQ18CB0oaiTqlROv-133" target="9FE5VQ18CB0oaiTqlROv-1">
          <mxGeometry width="50" height="50" relative="1" as="geometry">
            <mxPoint x="395" y="354.64" as="sourcePoint" />
            <mxPoint x="395" y="300" as="targetPoint" />
          </mxGeometry>
        </mxCell>
        <mxCell id="_Q3ZbAap9l-qBRIlL8T7-70" value="" style="ellipse;whiteSpace=wrap;html=1;aspect=fixed;fillColor=#FFFFFF;" vertex="1" parent="1">
          <mxGeometry x="390" y="374.64" width="10" height="10" as="geometry" />
        </mxCell>
        <mxCell id="_Q3ZbAap9l-qBRIlL8T7-71" value="nun assi" style="text;html=1;align=center;verticalAlign=middle;resizable=0;points=[];autosize=1;fontSize=10;fontColor=#00CC00;labelBorderColor=none;" vertex="1" parent="1">
          <mxGeometry x="370" y="20" width="60" height="30" as="geometry" />
        </mxCell>
        <mxCell id="_Q3ZbAap9l-qBRIlL8T7-72" value="tipologia" style="text;html=1;align=center;verticalAlign=middle;resizable=0;points=[];autosize=1;fontSize=10;fontColor=#00CC00;labelBorderColor=none;" vertex="1" parent="1">
          <mxGeometry x="455" y="20" width="70" height="30" as="geometry" />
        </mxCell>
        <mxCell id="_Q3ZbAap9l-qBRIlL8T7-73" value="tipologia" style="text;html=1;align=center;verticalAlign=middle;resizable=0;points=[];autosize=1;fontSize=10;fontColor=#00CC00;labelBorderColor=none;" vertex="1" parent="1">
          <mxGeometry x="195" y="20" width="70" height="30" as="geometry" />
        </mxCell>
      </root>
    </mxGraphModel>
  </diagram>
</mxfile>
